# xmcd
#
# Track frame offsets:
#	150
#	15339
#	33436
#	46712
#	64925
#	82482
#	99138
#	121773
#	140542
#	161422
#
# Disc length: 2336 seconds
#
# Revision: 1
# Processed by: cddbd v1.5.2PL0 Copyright (c) Steve Scherf et al.
# Submitted via: audiograbber 1.83.01
#
DISCID=75091e0a
DTITLE=Billy Currington - We Are Tonight
DYEAR=2013
DGENRE=Country
TTITLE0=Hey Girl
TTITLE1=Wingman
TTITLE2=One Way Ticket
TTITLE3=23 Degrees And South
TTITLE4=We Are Tonight
TTITLE5=Hard To Be A Hippie
TTITLE6=Closer Tonight
TTITLE7=Another Day Without You
TTITLE8=Banana Pancakes
TTITLE9=Hallelujah
EXTD=
EXTT0=
EXTT1=
EXTT2=
EXTT3=
EXTT4=
EXTT5=
EXTT6=
EXTT7=
EXTT8=
EXTT9=
PLAYORDER=
